<svg id="Matte" xmlns="http://www.w3.org/2000/svg" viewBox="0 0 192 86"><title>KHM logo full horizontal</title><rect x="2.5" y="2.5" width="187" height="81" fill="#c26e40"/><path d="M187,5V81H5V5H187m5-5H0V86H192V0h0Z" fill="#fbd161"/><path d="M90.42,24.27c3,1.25,3.1,4.85,4.06,6.62a7.74,7.74,0,0,0,2.06,2.57,0.37,0.37,0,0,1,.19.19s0,0.1-.1.1H95.7c-1.54,0-3.86-.58-4.22-2.66-0.55-3.17-1.22-5.93-3.5-5.93a1.19,1.19,0,0,0-1.32.65v5.09a2.84,2.84,0,0,1-2.81,2.86H82.91a0.11,0.11,0,0,1-.12-0.1A0.3,0.3,0,0,1,83,33.46a3.34,3.34,0,0,0,.89-2.57V19.8A3.42,3.42,0,0,0,83,17.24,0.3,0.3,0,0,1,82.79,17a0.11,0.11,0,0,1,.12-0.1h0.94a2.84,2.84,0,0,1,2.81,2.86v4.32c1.2-.29,3.48-1,4.51-4.78A2.93,2.93,0,0,1,94,16.92h1.56a0.09,0.09,0,0,1,.1.1,0.26,0.26,0,0,1-.17.19c-1,.48-0.91.58-2.23,4.18A5.76,5.76,0,0,1,90.42,24.27Z" fill="#f1f2f2"/><path d="M97.76,33.73c-0.24,0-.24-0.19,0-0.29a2,2,0,0,0,.89-1.15l0.53-1.34,4.7-11.76a2.15,2.15,0,0,0-.62-2,0.25,0.25,0,0,1-.07-0.1,0.13,0.13,0,0,1,.12-0.12h1.06a2.93,2.93,0,0,1,2.57,2l4.82,12a4.91,4.91,0,0,0,1.51,2.47c0.24,0.12.19,0.31,0.07,0.31h-0.94c-1,0-2.83-.46-3.41-1.92l-1.8-4.61c-1.18.36-3.58,0.86-4,1-1.25.5-1.44,0.91-2,2.16A6.81,6.81,0,0,0,100.5,32a2.19,2.19,0,0,1-.31.58,2.44,2.44,0,0,1-1.8,1.15l-0.24,0H98Zm4.92-7.15c0,0.07,3.31-.1,3.67-1.27L104.79,21Z" fill="#f1f2f2"/><path d="M128.27,17.16a3.22,3.22,0,0,0-.91,2.45v7.9c0,2.74-1.42,6.55-6.46,6.55-4.73,0-6.46-3.48-6.46-6.58V19.76a3.37,3.37,0,0,0-1-2.59,0.25,0.25,0,0,1-.07-0.1,0.13,0.13,0,0,1,.12-0.12h0.91a2.83,2.83,0,0,1,2.81,2.81v7.75c0,3.1,1.9,5.06,4.06,5.06s4.06-1.9,4.06-5v-8.9a2,2,0,0,1,2-1.68h0.89a0.13,0.13,0,0,1,.1.12A0.25,0.25,0,0,1,128.27,17.16Z" fill="#f1f2f2"/><path d="M128.53,33.73c-0.24,0-.24-0.19,0-0.29a2,2,0,0,0,.89-1.15l0.53-1.34,4.71-11.76a2.15,2.15,0,0,0-.62-2,0.25,0.25,0,0,1-.07-0.1,0.13,0.13,0,0,1,.12-0.12h1.06a2.93,2.93,0,0,1,2.57,2l4.82,12A4.91,4.91,0,0,0,144,33.44c0.24,0.12.19,0.31,0.07,0.31h-0.94c-1,0-2.83-.46-3.41-1.92l-1.8-4.61c-1.18.36-3.58,0.86-4,1-1.25.5-1.44,0.91-2,2.16a6.89,6.89,0,0,0-.67,1.58,2.21,2.21,0,0,1-.31.58,2.44,2.44,0,0,1-1.8,1.15l-0.24,0h-0.1Zm4.92-7.15c0,0.07,3.31-.1,3.67-1.27L135.56,21Z" fill="#f1f2f2"/><path d="M150,33.46a0.3,0.3,0,0,1,.17.19,0.11,0.11,0,0,1-.12.1h-0.94c-0.5,0-.94-0.29-1.42-0.29s-0.89.29-1.39,0.29H145.4a0.11,0.11,0,0,1-.12-0.1,0.31,0.31,0,0,1,.17-0.19,3.34,3.34,0,0,0,.89-2.57V19.68a3.36,3.36,0,0,0-.89-2.45,0.3,0.3,0,0,1-.17-0.19,0.11,0.11,0,0,1,.12-0.1h0.94c0.5,0,.91.29,1.39,0.29s0.89-.29,1.42-0.29h0.94a0.11,0.11,0,0,1,.12.1,0.3,0.3,0,0,1-.17.19,3.36,3.36,0,0,0-.89,2.45V30.89A3.34,3.34,0,0,0,150,33.46Z" fill="#f1f2f2"/><path d="M154,19.92a1.61,1.61,0,0,0,1-1.49,2,2,0,0,1-1.44-1.85c0-.74,3.12-0.74,3.12,0,0,3.79-2.88,3.89-2.86,3.53A0.33,0.33,0,0,1,154,19.92Z" fill="#f1f2f2"/><path d="M160.33,28.42a0.31,0.31,0,0,1,.24.31,3.34,3.34,0,0,0,.58,2.38,3.63,3.63,0,0,0,3.19,1.49c2.35,0,3.14-1.25,3.14-2.54,0-3.89-8.74-3.5-8.74-8.54,0-3.17,3-4.92,6-4.92a6.25,6.25,0,0,1,4.46,1.94c0.94,1.2-.58,3.07-1.75,2.66,0.24-1.56-1.58-3.31-3.22-3.31a2.67,2.67,0,0,0-2.81,2.69c0,4,8.74,3,8.74,8.45,0,3.34-3.14,5.09-6.17,5.09-2,0-5.38-1.27-5.67-2.76S158.82,28.42,160.33,28.42Z" fill="#f1f2f2"/><path d="M92.53,46.57H88.28a2.35,2.35,0,0,0-1.63.7v4.63a2.84,2.84,0,0,1-2.81,2.86H82.91a0.11,0.11,0,0,1-.12-0.1A0.3,0.3,0,0,1,83,54.46a3.34,3.34,0,0,0,.89-2.57V40.8A3.42,3.42,0,0,0,83,38.24,0.3,0.3,0,0,1,82.79,38a0.11,0.11,0,0,1,.12-0.1h0.94a2.84,2.84,0,0,1,2.81,2.86v4.34h4.27a2.34,2.34,0,0,0,1.63-.77,25.85,25.85,0,0,1,0-3.58,2.85,2.85,0,0,1,2.81-2.86h0.94a0.11,0.11,0,0,1,.12.1,0.3,0.3,0,0,1-.17.19,3.42,3.42,0,0,0-.89,2.57V51.89a3.34,3.34,0,0,0,.89,2.57,0.31,0.31,0,0,1,.17.19,0.11,0.11,0,0,1-.12.1H95.34a2.84,2.84,0,0,1-2.81-2.86V46.57Z" fill="#f1f2f2"/><path d="M107.89,54.46a0.31,0.31,0,0,1,.17.19,0.11,0.11,0,0,1-.12.1H107c-0.5,0-.94-0.29-1.42-0.29s-0.89.29-1.39,0.29h-0.94a0.11,0.11,0,0,1-.12-0.1,0.31,0.31,0,0,1,.17-0.19,3.33,3.33,0,0,0,.89-2.57V40.68a3.36,3.36,0,0,0-.89-2.45,0.3,0.3,0,0,1-.17-0.19,0.11,0.11,0,0,1,.12-0.1h0.94c0.5,0,.91.29,1.39,0.29s0.89-.29,1.42-0.29h0.94a0.11,0.11,0,0,1,.12.1,0.3,0.3,0,0,1-.17.19,3.36,3.36,0,0,0-.89,2.45V51.89A3.34,3.34,0,0,0,107.89,54.46Z" fill="#f1f2f2"/><path d="M115.76,40.37a3.06,3.06,0,0,0-.89-2.21l-0.07-.1a0.13,0.13,0,0,1,.1-0.12h0.89a4.67,4.67,0,0,1,4.13,2.3l5.88,9.86V40.35a2.27,2.27,0,0,1,2.21-2.4h0.65a0.13,0.13,0,0,1,.1.12,0.25,0.25,0,0,1-.07.1,2.86,2.86,0,0,0-.89,2.14V52.11a2.63,2.63,0,0,0,.86,2.38,0.34,0.34,0,0,1,0,.14,0.11,0.11,0,0,1-.07.12h-0.84a4,4,0,0,1-3.22-1.94l-6.82-11.23V52.35a2.27,2.27,0,0,1-2.21,2.4H114.9a0.13,0.13,0,0,1-.1-0.12,0.25,0.25,0,0,1,.07-0.1,2.86,2.86,0,0,0,.89-2.14v-12Z" fill="#f1f2f2"/><path d="M149.79,46.35A8.55,8.55,0,0,1,141.56,55a13.19,13.19,0,0,1-3.67-.58,2.73,2.73,0,0,1-1.25.29h-0.94a0.11,0.11,0,0,1-.12-0.1,0.31,0.31,0,0,1,.17-0.19,3.34,3.34,0,0,0,.89-2.57V40.8a3.42,3.42,0,0,0-.89-2.57,0.3,0.3,0,0,1-.17-0.19,0.11,0.11,0,0,1,.12-0.1h0.94a2.76,2.76,0,0,1,1.32.34,9.84,9.84,0,0,1,3.58-.62A8.57,8.57,0,0,1,149.79,46.35Zm-3.12,0c0-3.91-2.4-7.44-5.14-7.44-2.09,0-2.06,1-2.06,1.54,0,3.24,0,8.83,0,11.9,0,0.67,0,1.49,2.09,1.49C144.2,53.84,146.67,50.26,146.67,46.35Z" fill="#f1f2f2"/><path d="M170.51,38.16a3.22,3.22,0,0,0-.91,2.45v7.9c0,2.74-1.42,6.55-6.46,6.55-4.73,0-6.46-3.48-6.46-6.58V40.76a3.37,3.37,0,0,0-1-2.59,0.25,0.25,0,0,1-.07-0.1,0.13,0.13,0,0,1,.12-0.12h0.91a2.83,2.83,0,0,1,2.81,2.81v7.75c0,3.1,1.9,5.06,4.06,5.06s4.06-1.9,4.06-5v-8.9a2,2,0,0,1,2-1.68h0.89a0.13,0.13,0,0,1,.1.12A0.25,0.25,0,0,1,170.51,38.16Z" fill="#f1f2f2"/><path d="M90.52,65.4c0-1.05-.08-2.33-0.08-3.6h0c-0.27,1.12-.64,2.37-1,3.39l-1.07,3.42H86.81l-0.94-3.39c-0.29-1-.58-2.28-0.79-3.42h0C85,63,85,64.33,84.9,65.42l-0.16,3.33H82.91L83.47,60h2.64L87,62.91c0.27,1,.55,2.11.74,3.13h0c0.25-1,.55-2.17.83-3.15L89.52,60H92.1l0.48,8.76H90.65Z" fill="#f1f2f2"/><path d="M103.95,64.28c0,2.87-1.74,4.62-4.3,4.62s-4.12-2-4.12-4.46,1.68-4.59,4.26-4.59S103.95,61.86,103.95,64.28Zm-6.33.12c0,1.72.81,2.93,2.13,2.93s2.11-1.27,2.11-3-0.75-2.92-2.12-2.92S97.62,62.69,97.62,64.39Z" fill="#f1f2f2"/><path d="M106.68,68.75V60H109l1.82,3.21a25.39,25.39,0,0,1,1.43,3h0a32.56,32.56,0,0,1-.17-3.65V60h1.82v8.76h-2.08L110,65.37a32.86,32.86,0,0,1-1.52-3.09h0c0.05,1.16.08,2.39,0.08,3.82v2.64h-1.82Z" fill="#f1f2f2"/><path d="M119.64,66.5L119,68.75H117L119.64,60h2.6L125,68.75h-2.13l-0.68-2.25h-2.51ZM121.86,65l-0.55-1.86c-0.16-.52-0.31-1.17-0.44-1.69h0c-0.13.52-.26,1.18-0.4,1.69L119.92,65h1.94Z" fill="#f1f2f2"/><path d="M128,66.71a5.05,5.05,0,0,0,2.2.55c0.91,0,1.39-.38,1.39-0.95s-0.42-.86-1.47-1.23c-1.46-.51-2.41-1.31-2.41-2.59,0-1.5,1.25-2.64,3.32-2.64a5.36,5.36,0,0,1,2.24.44l-0.44,1.6a4.16,4.16,0,0,0-1.83-.42c-0.86,0-1.27.39-1.27,0.84s0.49,0.81,1.63,1.24c1.55,0.57,2.27,1.38,2.27,2.61,0,1.47-1.13,2.72-3.54,2.72a5.72,5.72,0,0,1-2.48-.53Z" fill="#f1f2f2"/><path d="M138.47,61.65h-2.35V60h6.73v1.66h-2.39v7.1h-2v-7.1Z" fill="#f1f2f2"/><path d="M150.94,65h-3.22v2.08h3.6v1.63h-5.59V60h5.41v1.63h-3.42v1.82h3.22V65Z" fill="#f1f2f2"/><path d="M154.49,60.1a17.48,17.48,0,0,1,2.64-.18,4.47,4.47,0,0,1,2.83.69,2.22,2.22,0,0,1,.81,1.83,2.32,2.32,0,0,1-1.55,2.16v0a2.21,2.21,0,0,1,1.17,1.64c0.27,1,.55,2.13.71,2.47h-2a11,11,0,0,1-.61-2c-0.23-1.09-.61-1.39-1.42-1.4h-0.6v3.45h-2V60.1Zm2,3.77h0.78a1.33,1.33,0,0,0,1.57-1.26,1.23,1.23,0,0,0-1.46-1.22,4.89,4.89,0,0,0-.9.07v2.42Z" fill="#f1f2f2"/><path d="M165.8,68.75V65.16L163,60h2.26l0.9,2.11c0.27,0.64.46,1.11,0.68,1.68h0c0.19-.55.4-1.05,0.66-1.68L168.44,60h2.22l-2.89,5.11v3.65h-2Z" fill="#f1f2f2"/><path d="M28.54,55.05a13.66,13.66,0,0,1,12-13.27,13.66,13.66,0,0,1-12-13.27,13.28,13.28,0,0,1,6.6-11.37A25.89,25.89,0,0,0,16,41.82,25.9,25.9,0,0,0,35.43,66.59,13.31,13.31,0,0,1,28.54,55.05Z" fill="#9e4e58" fill-rule="evenodd"/><path d="M50.1,17.1a13.29,13.29,0,0,1,6.66,11.4,13.66,13.66,0,0,1-12,13.27,13.66,13.66,0,0,1,12,13.27,13.32,13.32,0,0,1-6.94,11.57c11.27-3,19.54-13,19.54-24.8A25.89,25.89,0,0,0,50.1,17.1Z" fill="#9e4e58" fill-rule="evenodd"/><path d="M50.33,18.51a9,9,0,1,1-15.36,0,12.24,12.24,0,0,0-5.39,10.06C29.58,35.44,35.43,41,42.65,41s13.07-5.57,13.07-12.44A12.24,12.24,0,0,0,50.33,18.51Z" fill="#e08356" fill-rule="evenodd"/><path d="M42.65,42.68c-7.22,0-13.07,5.57-13.07,12.44a12.24,12.24,0,0,0,5.32,10,9,9,0,1,1,15.49,0,12.24,12.24,0,0,0,5.32-10C55.72,48.25,49.87,42.68,42.65,42.68Z" fill="#e08356" fill-rule="evenodd"/><circle cx="42.65" cy="23.28" r="8.07" fill="#efba7c"/><circle cx="42.65" cy="60.47" r="8.07" fill="#efba7c"/></svg>